<?xml version="1.0" encoding="UTF-8" standalone="no"?>
<!DOCTYPE svg PUBLIC "-//W3C//DTD SVG 1.1//EN" "http://www.w3.org/Graphics/SVG/1.1/DTD/svg11.dtd">
<svg width="100%" height="100%" viewBox="0 0 2100 2100" version="1.1" xmlns="http://www.w3.org/2000/svg" xmlns:xlink="http://www.w3.org/1999/xlink" xml:space="preserve" xmlns:serif="http://www.serif.com/" style="fill-rule:evenodd;clip-rule:evenodd;stroke-linecap:round;stroke-linejoin:round;stroke-miterlimit:1.5;">
    <g transform="matrix(3.51776,0,0,3.51776,-1083.23,-2986.58)">
        <g transform="matrix(0.303138,0,0,0.303138,220.396,617.291)">
            <g transform="matrix(0.173648,-0.984808,0.984808,0.173648,163.335,2346.16)">
                <path d="M727.157,1008.94C391.893,768.403 687.429,338.657 980.22,141" style="fill:none;stroke:rgb(40,120,114);stroke-width:25.4px;"/>
            </g>
            <g transform="matrix(0.34202,-0.939693,0.939693,0.34202,77.6479,2141.13)">
                <path d="M727.157,1008.94C391.893,768.403 687.429,338.657 980.22,141" style="fill:none;stroke:rgb(40,120,114);stroke-width:25.4px;"/>
            </g>
            <g transform="matrix(0.5,-0.866025,0.866025,0.5,28.8658,1924.33)">
                <path d="M727.157,1008.94C391.893,768.403 687.429,338.657 980.22,141" style="fill:none;stroke:rgb(40,120,114);stroke-width:25.4px;"/>
            </g>
            <g transform="matrix(0.642788,-0.766044,0.766044,0.642788,18.4714,1702.35)">
                <path d="M727.157,1008.94C391.893,768.403 687.429,338.657 980.22,141" style="fill:none;stroke:rgb(40,120,114);stroke-width:25.4px;"/>
            </g>
            <g transform="matrix(0.766044,-0.642788,0.642788,0.766044,46.7804,1481.95)">
                <path d="M727.157,1008.94C391.893,768.403 687.429,338.657 980.22,141" style="fill:none;stroke:rgb(40,120,114);stroke-width:25.4px;"/>
            </g>
            <g transform="matrix(0.866025,-0.5,0.5,0.866025,112.933,1269.8)">
                <path d="M727.157,1008.94C391.893,768.403 687.429,338.657 980.22,141" style="fill:none;stroke:rgb(40,120,114);stroke-width:25.4px;"/>
            </g>
            <g transform="matrix(0.939693,-0.34202,0.34202,0.939693,214.918,1072.37)">
                <path d="M727.157,1008.94C391.893,768.403 687.429,338.657 980.22,141" style="fill:none;stroke:rgb(40,120,114);stroke-width:25.4px;"/>
            </g>
            <g transform="matrix(0.984808,-0.173648,0.173648,0.984808,349.639,895.645)">
                <path d="M727.157,1008.94C391.893,768.403 687.429,338.657 980.22,141" style="fill:none;stroke:rgb(40,120,114);stroke-width:25.4px;"/>
            </g>
            <g transform="matrix(1,0,0,1,513,745)">
                <path d="M727.157,1008.94C391.893,768.403 687.429,338.657 980.22,141" style="fill:none;stroke:rgb(40,120,114);stroke-width:25.4px;"/>
            </g>
        </g>
        <g transform="matrix(1.85619e-17,-0.303138,0.303138,1.85619e-17,70.3654,1541.6)">
            <g transform="matrix(0.173648,-0.984808,0.984808,0.173648,163.335,2346.16)">
                <path d="M727.157,1008.94C391.893,768.403 687.429,338.657 980.22,141" style="fill:none;stroke:rgb(40,120,114);stroke-width:25.4px;"/>
            </g>
            <g transform="matrix(0.34202,-0.939693,0.939693,0.34202,77.6479,2141.13)">
                <path d="M727.157,1008.94C391.893,768.403 687.429,338.657 980.22,141" style="fill:none;stroke:rgb(40,120,114);stroke-width:25.4px;"/>
            </g>
            <g transform="matrix(0.5,-0.866025,0.866025,0.5,28.8658,1924.33)">
                <path d="M727.157,1008.94C391.893,768.403 687.429,338.657 980.22,141" style="fill:none;stroke:rgb(40,120,114);stroke-width:25.4px;"/>
            </g>
            <g transform="matrix(0.642788,-0.766044,0.766044,0.642788,18.4714,1702.35)">
                <path d="M727.157,1008.94C391.893,768.403 687.429,338.657 980.22,141" style="fill:none;stroke:rgb(40,120,114);stroke-width:25.4px;"/>
            </g>
            <g transform="matrix(0.766044,-0.642788,0.642788,0.766044,46.7804,1481.95)">
                <path d="M727.157,1008.94C391.893,768.403 687.429,338.657 980.22,141" style="fill:none;stroke:rgb(40,120,114);stroke-width:25.4px;"/>
            </g>
            <g transform="matrix(0.866025,-0.5,0.5,0.866025,112.933,1269.8)">
                <path d="M727.157,1008.94C391.893,768.403 687.429,338.657 980.22,141" style="fill:none;stroke:rgb(40,120,114);stroke-width:25.4px;"/>
            </g>
            <g transform="matrix(0.939693,-0.34202,0.34202,0.939693,214.918,1072.37)">
                <path d="M727.157,1008.94C391.893,768.403 687.429,338.657 980.22,141" style="fill:none;stroke:rgb(40,120,114);stroke-width:25.4px;"/>
            </g>
            <g transform="matrix(0.984808,-0.173648,0.173648,0.984808,349.639,895.645)">
                <path d="M727.157,1008.94C391.893,768.403 687.429,338.657 980.22,141" style="fill:none;stroke:rgb(40,120,114);stroke-width:25.4px;"/>
            </g>
            <g transform="matrix(1,0,0,1,513,745)">
                <path d="M727.157,1008.94C391.893,768.403 687.429,338.657 980.22,141" style="fill:none;stroke:rgb(40,120,114);stroke-width:25.4px;"/>
            </g>
        </g>
        <g transform="matrix(-0.303138,-3.71237e-17,3.71237e-17,-0.303138,994.561,1678.9)">
            <g transform="matrix(0.173648,-0.984808,0.984808,0.173648,163.335,2346.16)">
                <path d="M727.157,1008.94C391.893,768.403 687.429,338.657 980.22,141" style="fill:none;stroke:rgb(40,120,114);stroke-width:25.4px;"/>
            </g>
            <g transform="matrix(0.34202,-0.939693,0.939693,0.34202,77.6479,2141.13)">
                <path d="M727.157,1008.94C391.893,768.403 687.429,338.657 980.22,141" style="fill:none;stroke:rgb(40,120,114);stroke-width:25.4px;"/>
            </g>
            <g transform="matrix(0.5,-0.866025,0.866025,0.5,28.8658,1924.33)">
                <path d="M727.157,1008.94C391.893,768.403 687.429,338.657 980.22,141" style="fill:none;stroke:rgb(40,120,114);stroke-width:25.4px;"/>
            </g>
            <g transform="matrix(0.642788,-0.766044,0.766044,0.642788,18.4714,1702.35)">
                <path d="M727.157,1008.94C391.893,768.403 687.429,338.657 980.22,141" style="fill:none;stroke:rgb(40,120,114);stroke-width:25.4px;"/>
            </g>
            <g transform="matrix(0.766044,-0.642788,0.642788,0.766044,46.7804,1481.95)">
                <path d="M727.157,1008.94C391.893,768.403 687.429,338.657 980.22,141" style="fill:none;stroke:rgb(40,120,114);stroke-width:25.4px;"/>
            </g>
            <g transform="matrix(0.866025,-0.5,0.5,0.866025,112.933,1269.8)">
                <path d="M727.157,1008.94C391.893,768.403 687.429,338.657 980.22,141" style="fill:none;stroke:rgb(40,120,114);stroke-width:25.4px;"/>
            </g>
            <g transform="matrix(0.939693,-0.34202,0.34202,0.939693,214.918,1072.37)">
                <path d="M727.157,1008.94C391.893,768.403 687.429,338.657 980.22,141" style="fill:none;stroke:rgb(40,120,114);stroke-width:25.4px;"/>
            </g>
            <g transform="matrix(0.984808,-0.173648,0.173648,0.984808,349.639,895.645)">
                <path d="M727.157,1008.94C391.893,768.403 687.429,338.657 980.22,141" style="fill:none;stroke:rgb(40,120,114);stroke-width:25.4px;"/>
            </g>
            <g transform="matrix(1,0,0,1,513,745)">
                <path d="M727.157,1008.94C391.893,768.403 687.429,338.657 980.22,141" style="fill:none;stroke:rgb(40,120,114);stroke-width:25.4px;"/>
            </g>
        </g>
        <g transform="matrix(-5.56856e-17,0.303138,-0.303138,-5.56856e-17,1142.47,752.885)">
            <g transform="matrix(0.173648,-0.984808,0.984808,0.173648,163.335,2346.16)">
                <path d="M727.157,1008.94C391.893,768.403 687.429,338.657 980.22,141" style="fill:none;stroke:rgb(40,120,114);stroke-width:25.4px;"/>
            </g>
            <g transform="matrix(0.34202,-0.939693,0.939693,0.34202,77.6479,2141.13)">
                <path d="M727.157,1008.94C391.893,768.403 687.429,338.657 980.22,141" style="fill:none;stroke:rgb(40,120,114);stroke-width:25.4px;"/>
            </g>
            <g transform="matrix(0.5,-0.866025,0.866025,0.5,28.8658,1924.33)">
                <path d="M727.157,1008.94C391.893,768.403 687.429,338.657 980.22,141" style="fill:none;stroke:rgb(40,120,114);stroke-width:25.4px;"/>
            </g>
            <g transform="matrix(0.642788,-0.766044,0.766044,0.642788,18.4714,1702.35)">
                <path d="M727.157,1008.94C391.893,768.403 687.429,338.657 980.22,141" style="fill:none;stroke:rgb(40,120,114);stroke-width:25.4px;"/>
            </g>
            <g transform="matrix(0.766044,-0.642788,0.642788,0.766044,46.7804,1481.95)">
                <path d="M727.157,1008.94C391.893,768.403 687.429,338.657 980.22,141" style="fill:none;stroke:rgb(40,120,114);stroke-width:25.4px;"/>
            </g>
            <g transform="matrix(0.866025,-0.5,0.5,0.866025,112.933,1269.8)">
                <path d="M727.157,1008.94C391.893,768.403 687.429,338.657 980.22,141" style="fill:none;stroke:rgb(40,120,114);stroke-width:25.4px;"/>
            </g>
            <g transform="matrix(0.939693,-0.34202,0.34202,0.939693,214.918,1072.37)">
                <path d="M727.157,1008.94C391.893,768.403 687.429,338.657 980.22,141" style="fill:none;stroke:rgb(40,120,114);stroke-width:25.4px;"/>
            </g>
            <g transform="matrix(0.984808,-0.173648,0.173648,0.984808,349.639,895.645)">
                <path d="M727.157,1008.94C391.893,768.403 687.429,338.657 980.22,141" style="fill:none;stroke:rgb(40,120,114);stroke-width:25.4px;"/>
            </g>
            <g transform="matrix(1,0,0,1,513,745)">
                <path d="M727.157,1008.94C391.893,768.403 687.429,338.657 980.22,141" style="fill:none;stroke:rgb(40,120,114);stroke-width:25.4px;"/>
            </g>
        </g>
        <g transform="matrix(0.303138,0,0,0.303138,231.612,612.744)">
            <circle cx="1240.16" cy="1753.94" r="253.063" style="fill:rgb(40,120,114);"/>
        </g>
    </g>
</svg>
